<svg width="20" height="20" viewBox="0 0 20 20" fill="none" xmlns="http://www.w3.org/2000/svg">
<path d="M18.75 16.2502H17.5V10.6252L17.6828 10.808C17.8003 10.9253 17.9596 10.9911 18.1256 10.9909C18.2916 10.9908 18.4507 10.9247 18.568 10.8072C18.6852 10.6898 18.751 10.5305 18.7509 10.3645C18.7508 10.1985 18.6847 10.0394 18.5672 9.92208L10.8836 2.24083C10.6492 2.00658 10.3314 1.875 10 1.875C9.66862 1.875 9.3508 2.00658 9.11641 2.24083L1.43281 9.92208C1.31564 10.0394 1.24986 10.1984 1.24993 10.3642C1.25 10.5299 1.31593 10.6889 1.4332 10.8061C1.55048 10.9232 1.7095 10.989 1.87528 10.9889C2.04106 10.9889 2.20002 10.9229 2.31719 10.8057L2.5 10.6252V16.2502H1.25C1.08424 16.2502 0.925268 16.316 0.808058 16.4333C0.690848 16.5505 0.625 16.7094 0.625 16.8752C0.625 17.041 0.690848 17.1999 0.808058 17.3171C0.925268 17.4344 1.08424 17.5002 1.25 17.5002H18.75C18.9158 17.5002 19.0747 17.4344 19.1919 17.3171C19.3092 17.1999 19.375 17.041 19.375 16.8752C19.375 16.7094 19.3092 16.5505 19.1919 16.4333C19.0747 16.316 18.9158 16.2502 18.75 16.2502ZM11.875 16.2502H8.125V12.5002C8.125 12.4173 8.15792 12.3378 8.21653 12.2792C8.27513 12.2206 8.35462 12.1877 8.4375 12.1877H11.5625C11.6454 12.1877 11.7249 12.2206 11.7835 12.2792C11.8421 12.3378 11.875 12.4173 11.875 12.5002V16.2502Z" fill="currentColor"/>
</svg>
