<svg width="17" height="17" viewBox="0 0 17 17" fill="none" xmlns="http://www.w3.org/2000/svg">
<path d="M8.125 0C6.51803 0 4.94714 0.476523 3.611 1.36931C2.27485 2.2621 1.23344 3.53105 0.618482 5.0157C0.00352044 6.50035 -0.157382 8.13401 0.156123 9.71011C0.469628 11.2862 1.24346 12.7339 2.37976 13.8702C3.51606 15.0065 4.9638 15.7804 6.5399 16.0939C8.11599 16.4074 9.74966 16.2465 11.2343 15.6315C12.719 15.0166 13.9879 13.9752 14.8807 12.639C15.7735 11.3029 16.25 9.73197 16.25 8.125C16.2477 5.97081 15.391 3.90551 13.8677 2.38227C12.3445 0.85903 10.2792 0.00227486 8.125 0ZM7.8125 3.75C7.99792 3.75 8.17918 3.80498 8.33335 3.908C8.48752 4.01101 8.60768 4.15743 8.67864 4.32873C8.7496 4.50004 8.76816 4.68854 8.73199 4.8704C8.69582 5.05225 8.60653 5.2193 8.47542 5.35041C8.3443 5.48152 8.17726 5.57081 7.9954 5.60699C7.81354 5.64316 7.62504 5.62459 7.45374 5.55364C7.28243 5.48268 7.13601 5.36252 7.033 5.20835C6.92999 5.05418 6.875 4.87292 6.875 4.6875C6.875 4.43886 6.97378 4.2004 7.14959 4.02459C7.32541 3.84877 7.56386 3.75 7.8125 3.75ZM8.75 12.5C8.41848 12.5 8.10054 12.3683 7.86612 12.1339C7.6317 11.8995 7.5 11.5815 7.5 11.25V8.125C7.33424 8.125 7.17527 8.05915 7.05806 7.94194C6.94085 7.82473 6.875 7.66576 6.875 7.5C6.875 7.33424 6.94085 7.17527 7.05806 7.05806C7.17527 6.94085 7.33424 6.875 7.5 6.875C7.83152 6.875 8.14947 7.0067 8.38389 7.24112C8.61831 7.47554 8.75 7.79348 8.75 8.125V11.25C8.91576 11.25 9.07474 11.3158 9.19195 11.4331C9.30916 11.5503 9.375 11.7092 9.375 11.875C9.375 12.0408 9.30916 12.1997 9.19195 12.3169C9.07474 12.4342 8.91576 12.5 8.75 12.5Z" fill="currentColor"/>
</svg>
